P1
3 5
001
001
001
001
001
