P1
3 5
111
001
011
001
111
