P1
3 5
111
100
111
101
111
