P1
3 5
111
101
111
101
111
