P1
20 20
00000000000000000000
11010110000001101011
10101010000001010101
10000010000001000001
01000100000000100010
01010100000000101010
01010100000000101010
01000100000000100010
01000111111111100010
01000000000000000010
01000000000000000010
01000000000000000010
01010000111100001010
01010001000010001010
01000001011010000010
01000001000010000010
01000001000010000010
01000001000010000010
11111111111111111111
00000000000000000000