P1
22 22
0000001000000001000000
0000011000000001100000
0000101000110001010000
0000101011001101010000
0001011100000011101000
0001010000000000101000
0001100000000000011000
0001000000000000001000
0001000000000000001000
0011000000000000001100
0010110000000000110100
0010101100000011010100
0011100011001100011100
0001110000110000111000
0000101100000011010000
0000100011001100010000
0000010000110000100000
0000010000000000100000
0000001000000001000000
0000001000000001000000
0000000110000110000000
0000000001111000000000