P1
18 18
000000000000000000
000000000000000000
000000011100000000
000001100011000000
000010000000100000
000100000000010000
001000110001101000
001001101011011000
001001111011111000
010000110001100100
010000000000000100
010000000000000100
010000000000000100
010000000000000100
010100010000100100
011010101001010100
010001000110001100
000000000000000000
