P1
21 21
000000011111100000000
000000100000010000000
000001000000001000000
000010110000110100000
000101011001011010000
000101111001111010000
000100110000110010000
000100001001000010000
000100001001000010000
000010000110000100000
000001000000001000000
000000100000010000000
000001011111101000000
000010000000000100000
000100000000000010000
000100100000010010000
000100100000010010000
000011100000011100000
000000100110010000000
000000100110010000000
000000011111100000000