P1
21 21
000000000111000000000
000000011111110000000
000001111111111100000
000011110000011110000
001001000000000100100
001100000000000001100
011110000101000011110
111000000101000001111
111000001101100000111
110000011101110000011
110000111000111000011
110001110000011100011
110011100000001110011
111111000000000111111
011110000000000011110
011100000000000001110
001110000000000011100
001111100000001111100
000111111000111111000
000001111111111100000
000000011111110000000