P1
23 23
00000000011111000000000
00000011100000111000000
00001100000000000110000
00110000000000000001100
00110000000000000001100
00100000000000000000100
01111111111111111111110
01000000000000000000010
01001111100000111110010
01000111000000011100010
01001000000000000010010
01000000000000000000010
01100000001110000000110
01100000111111100000110
10000001100000110000001
10100000000000000000101
10010000000000000001001
10000000001110000000001
11000010011111001000011
01100111011111011100110
00010010011111001001000
00010000011111000001000
00001111111111111110000